PathFileType	4	(X/Y/Z)	D:\TRACE\spot_10-12-23\spot_arm_body_motion_1_4-platform.trc
DataRate	CameraRate	NumFrames	NumMarkers	Units	OrigDataRate	OrigDataStartFrame	OrigNumFrames
100.00	100.00	      36	5	mm	100.00	2626	      7000
Frame#	Time	Left_Front			Right_Front			Left_Aft			Right_Aft			Post			
		X1	Y1	Z1	X2	Y2	Z2	X3	Y3	Z3	X4	Y4	Z4	X5	Y5	Z5	

2626	26.250	-821.74097	-11.85329	-657.47974	745.83661	-14.32284	-632.60034	-749.95288	26.61567	480.64648	659.88507	28.82239	580.67181	-19.09562	708.53931	-993.35132	
2627	26.260	-820.81036	-12.07733	-657.38580	746.44617	-14.41750	-632.57208	-749.59949	26.65135	480.64020	660.45996	28.84475	580.70074	-18.41553	708.57855	-993.28448	
2628	26.270	-820.09119	-12.46894	-657.39410	747.17126	-14.68299	-632.59222	-749.14172	26.69181	480.65613	661.11975	28.66831	580.79266	-17.70618	708.67889	-993.11182	
2629	26.280	-819.65405	-12.32210	-657.35406	747.74048	-14.49157	-632.62073	-748.32825	26.60772	480.72632	661.72375	28.59101	580.83716	-16.91031	708.67273	-992.93909	
2630	26.290	-819.08331	-11.91701	-657.32098	748.20398	-13.97896	-632.65692	-747.51752	26.43513	480.80276	662.41425	28.48672	580.90503	-16.18295	708.92932	-992.69238	
2631	26.300	-818.57391	-11.56592	-657.36896	748.98077	-14.00086	-632.58130	-747.07849	26.31717	480.87189	663.08569	28.41089	580.90613	-16.03502	709.43097	-992.83044	
2632	26.310	-817.78925	-11.40420	-657.30084	749.75623	-13.94242	-632.45978	-746.51135	26.21543	480.92880	663.81036	28.29772	580.96582	-15.43905	709.84241	-992.59479	
2633	26.320	-816.94708	-11.46043	-657.11096	750.47272	-13.64336	-632.30414	-745.72345	26.07669	481.02200	664.47357	28.26243	581.05371	-14.45793	710.04199	-991.67194	
2634	26.330	-816.42181	-11.30088	-657.06689	751.01990	-13.40302	-632.22418	-744.93146	25.90430	481.02148	665.08112	27.96542	581.13660	-13.86519	710.29059	-991.32092	
2635	26.340	-815.89099	-11.10664	-657.01556	751.67065	-13.28815	-632.22443	-744.24445	25.89142	480.84219	665.66229	27.88522	581.21704	-13.34685	710.51630	-991.11145	
2636	26.350	-815.13629	-10.86819	-657.11786	752.28021	-13.53058	-632.25073	-743.50702	25.75885	480.85873	666.47498	27.59974	581.29810	-12.26379	710.81049	-990.53503	
2637	26.360	-814.12567	-10.61763	-657.08728	753.17377	-12.99409	-632.19659	-742.49072	25.73539	480.91089	667.21814	27.62085	581.32129	-11.76146	711.16943	-990.47900	
2638	26.370	-813.35510	-10.68919	-656.91577	753.83325	-12.59311	-632.22736	-742.10297	25.73829	480.94470	667.85413	27.50481	581.33429	-11.19913	711.46082	-990.17535	
2639	26.380	-812.84045	-10.53219	-656.79480	754.53247	-12.46431	-632.18958	-741.40704	25.62704	481.03418	668.51416	27.19740	581.22131	-10.72140	711.69952	-989.97382	
2640	26.390	-812.29535	-10.17088	-656.72278	755.26697	-12.44494	-632.04199	-740.60059	25.49048	481.05807	669.27393	27.00474	581.29327	-9.91704	711.82819	-989.63129	
2641	26.400	-811.53748	-10.04205	-656.85516	756.01459	-12.33947	-631.92633	-739.93530	25.22058	481.18878	669.93652	26.92604	581.31110	-8.86269	711.95630	-989.44281	
2642	26.410	-810.55811	-9.96691	-656.82129	756.85339	-12.06902	-631.87585	-739.20721	25.08720	481.25977	670.71204	26.88935	581.43640	-7.99311	712.21478	-989.43811	
2643	26.420	-809.69214	-9.91504	-656.67059	757.63684	-12.02246	-631.98047	-738.14258	25.01019	481.28720	671.68842	26.78926	581.56317	-6.85996	712.46539	-988.94983	
2644	26.430	-808.90527	-9.70505	-656.55042	758.25861	-11.50311	-631.89081	-737.50647	24.98727	481.31680	672.49109	26.68835	581.60413	-6.74178	712.75903	-989.38702	
2645	26.440	-808.20386	-9.36988	-656.61438	759.18591	-11.43083	-631.85083	-736.82159	24.88755	481.29382	673.12573	26.54966	581.60162	-5.84321	713.10217	-989.30505	
2646	26.450	-807.44696	-9.22273	-656.64624	759.87885	-11.22347	-631.91071	-735.82233	24.63369	481.45053	673.95526	26.18961	581.64282	-5.09007	713.31311	-989.21997	
2647	26.460	-806.85846	-8.97227	-656.62646	760.74823	-11.16156	-631.92828	-735.11298	24.50316	481.49780	674.87048	26.07577	581.66840	-4.31310	713.74707	-989.11041	
2648	26.470	-805.65894	-8.79189	-656.45160	761.61676	-10.94894	-631.74658	-734.38239	24.36558	481.53497	675.59540	25.98865	581.77771	-3.26215	714.17242	-988.50983	
2649	26.480	-804.82941	-8.48786	-656.43390	762.51068	-10.55631	-631.67035	-733.12537	24.07638	481.63855	676.40881	25.80942	581.85455	-2.13177	714.48016	-988.18024	
2650	26.490	-804.20825	-8.13536	-656.41650	763.23853	-10.41918	-631.57220	-732.60608	24.03177	481.70245	677.34125	25.51729	581.91827	-0.09553	714.94257	-986.87811	
2651	26.500	-803.61017	-7.83922	-656.35437	764.06689	-10.25658	-631.54834	-731.88153	23.83233	481.77179	678.04407	25.36821	581.98230	-0.64116	715.14679	-987.28357	
2652	26.510	-802.50458	-7.62595	-656.24304	764.85803	-10.06173	-631.55829	-730.85388	23.61364	481.89771	678.86108	25.07025	582.00482	0.16618	715.49835	-986.71417	
2653	26.520	-801.44373	-7.59258	-656.20880	765.75256	-9.70424	-631.45288	-730.15967	23.54248	481.93207	679.82263	24.81119	582.12787	0.77388	715.94904	-986.51996	
2654	26.530	-800.70605	-7.26143	-656.01898	766.68579	-9.29065	-631.30750	-729.20447	23.30911	482.01477	680.60803	24.80673	582.25403	1.63234	716.38232	-986.15356	
2655	26.540	-799.84637	-6.92280	-656.05621	767.71051	-9.00032	-631.25079	-728.18787	23.09314	482.13269	681.55365	24.57430	582.34662	2.98361	716.88190	-985.24524	
2656	26.550	-798.92804	-6.74300	-656.06079	768.49579	-8.70189	-631.13367	-727.59613	22.95592	482.12146	682.45209	24.30102	582.40546	5.00456	717.37427	-983.87030	
2657	26.560	-797.96594	-6.67910	-655.78461	769.27350	-8.50411	-631.00171	-726.55457	22.65930	482.28424	683.30927	24.08281	582.51825	4.38931	717.70374	-984.43158	
2658	26.570	-797.21680	-6.18158	-655.62897	770.27789	-8.28334	-631.02649	-725.71313	22.54633	482.39304	684.27289	23.81423	582.63647	5.09327	718.21344	-984.30005	
2659	26.580	-796.28033	-5.73997	-655.71057	770.95844	-7.96911	-631.21246	-724.78375	22.30669	482.43472	685.15771	23.65848	582.73596	6.07002	718.69635	-984.09705	
2660	26.590	-795.35541	-5.47863	-655.82001	772.10474	-7.41097	-630.88177	-723.72076	22.08941	482.62521	686.16418	23.43016	582.81067	6.84323	719.13092	-983.85681	
2661	26.600	-794.25537	-5.16150	-655.58533	773.15637	-7.09159	-630.73181	-722.95313	21.83221	482.79840	687.07544	23.19692	582.88232	7.99989	719.52295	-983.08923	
